<svg xmlns="http://www.w3.org/2000/svg" width="375" height="882" fill="none" viewBox="0 0 375 882"><g clip-path="url(#clip0_23941_12103)"><path fill="#5B0171" d="M0 0h375v882H0z"/><path fill="url(#paint0_diamond_23941_12103)" d="M421.602 97.419c-81.77 6.787-122.482 43.141-189.862 89.944C84.502 289.639-165.231 453.55-26.353 566.908c80.79 65.944 169.6-20.797 266.499 17.791 77.571 30.891 93.745 99.403 173.051 125.526 137.573 45.316 249.551 5.677 360.441-87.473 82.898-69.637 127.224-131.331 140.913-238.698 14.905-116.906 23.408-282.807-94.436-286.635-70.618-2.294-83.392 83.552-152.78 96.863-101.308 19.435-142.929-105.396-245.733-96.863Z"/></g><defs><radialGradient id="paint0_diamond_23941_12103" cx="0" cy="0" r="1" gradientTransform="rotate(-128.618 402.717 102.114) scale(534.57 897.365)" gradientUnits="userSpaceOnUse"><stop stop-color="#FF3269" stop-opacity=".5"/><stop offset="1" stop-color="#BE84D8" stop-opacity="0"/></radialGradient><clipPath id="clip0_23941_12103"><path fill="#fff" d="M0 0h375v882H0z"/></clipPath></defs></svg>