<svg xmlns="http://www.w3.org/2000/svg" width="24" height="24" fill="none" viewBox="0 0 24 24"><path fill="#262A33" d="M10.559 22c.828 0 1.5-.683 1.5-1.525 0-.843-.672-1.526-1.5-1.526-.829 0-1.5.683-1.5 1.526 0 .842.671 1.525 1.5 1.525ZM17.618 22c.828 0 1.5-.683 1.5-1.525 0-.843-.672-1.526-1.5-1.526-.829 0-1.5.683-1.5 1.526 0 .842.671 1.525 1.5 1.525Z"/><path stroke="#262A33" stroke-linecap="round" stroke-width="1.8" d="M2 2.063c1.765 0 2.941-.565 4.118 1.695m0 0h13.128a2 2 0 0 1 1.902 2.618l-1.64 5.04a2 2 0 0 1-1.902 1.381H9.06m-2.941-9.04 2.94 9.04m11.765 3.955H9.272a1.977 1.977 0 0 1-1.978-1.977v-.213c0-.975.79-1.765 1.765-1.765v0"/></svg>